<svg version="1.0" xmlns="http://www.w3.org/2000/svg" width="213.000000pt" height="213.000000pt" viewBox="0 0 213.000000 213.000000" preserveAspectRatio="xMidYMid meet">
<metadata>
Created by potrace 1.10, written by Peter Selinger 2001-2011
</metadata>
<g transform="translate(0.000000,213.000000) scale(0.100000,-0.100000)" fill="#3c5a99" stroke="none">
<path d="M980 2094 c-205 -24 -396 -99 -547 -216 -30 -23 -87 -77 -126 -119 -271 -292 -348 -720 -196 -1093 90 -223 282 -427 504 -538 54 -27 198 -78 221 -78 12 0 14 61 14 365 l0 365 -90 0 -90 0 0 176 0 175 89 -3 89 -3 4 160 c4 136 8 169 27 218 30 75 75 134 135 174 84 57 130 66 344 71 l192 4 0 -170 0 -170 -126 -4 c-165 -4 -164 -3 -164 -167 l0 -116 145 3 145 3 -1 -68 c0 -37 -6 -115 -12 -173 l-12 -105 -132 -3 -133 -3 0 -369 0 -370 28 6 c58 12 189 58 237 81 296 149 497 415 566 748 16 77 16 293 0 370 -47 229 -150 417 -313 571 -140 132 -305 218 -498 259 -70 15 -242 26 -300 19z"/>
</g>
</svg>