<svg version="1.0" xmlns="http://www.w3.org/2000/svg" width="639.000000pt" height="639.000000pt" viewBox="0 0 639.000000 639.000000" preserveAspectRatio="xMidYMid meet">
<metadata>
Created by potrace 1.10, written by Peter Selinger 2001-2011
</metadata>
<g transform="translate(0.000000,639.000000) scale(0.100000,-0.100000)" fill="#f00075" stroke="none">
<path d="M2980 6295 c-41 -8 -114 -14 -161 -14 -53 -1 -101 -7 -122 -16 -20 -8 -60 -15 -89 -15 -31 -1 -61 -7 -72 -15 -11 -8 -40 -15 -65 -15 -25 0 -55 -7 -65 -15 -11 -8 -34 -15 -51 -15 -17 0 -40 -7 -51 -15 -10 -8 -32 -15 -49 -15 -16 0 -39 -7 -49 -15 -11 -8 -31 -15 -45 -15 -14 0 -35 -7 -45 -15 -11 -8 -29 -15 -40 -15 -12 0 -30 -7 -40 -15 -11 -8 -30 -15 -43 -15 -13 0 -23 -4 -23 -10 0 -5 -12 -13 -27 -16 -16 -4 -37 -13 -48 -20 -11 -8 -27 -14 -36 -14 -9 0 -22 -7 -29 -15 -7 -8 -20 -15 -30 -15 -10 0 -23 -7 -30 -15 -7 -8 -21 -15 -32 -15 -10 0 -21 -7 -24 -15 -4 -8 -14 -15 -24 -15 -10 0 -23 -7 -30 -15 -7 -8 -18 -15 -25 -15 -7 0 -18 -7 -25 -15 -7 -8 -21 -15 -31 -15 -11 0 -19 -5 -19 -10 0 -6 -10 -15 -22 -20 -29 -13 -54 -28 -99 -62 -20 -16 -40 -28 -43 -28 -8 0 -31 -18 -54 -42 -9 -10 -21 -18 -27 -18 -6 0 -24 -12 -41 -28 -16 -15 -51 -45 -79 -67 -85 -68 -95 -77 -214 -196 -122 -122 -141 -143 -205 -224 -22 -27 -50 -61 -63 -75 -13 -14 -23 -31 -23 -38 0 -7 -7 -15 -15 -18 -8 -4 -15 -13 -15 -20 0 -8 -7 -17 -15 -20 -8 -4 -15 -11 -15 -16 0 -6 -12 -27 -27 -47 -35 -45 -50 -70 -63 -98 -5 -13 -14 -23 -20 -23 -5 0 -10 -8 -10 -19 0 -10 -7 -24 -15 -31 -8 -7 -15 -18 -15 -25 0 -7 -7 -18 -15 -25 -8 -7 -15 -20 -15 -30 0 -10 -7 -20 -15 -24 -8 -3 -15 -14 -15 -24 0 -11 -7 -25 -15 -32 -8 -7 -15 -20 -15 -30 0 -10 -7 -23 -15 -30 -8 -7 -15 -20 -15 -29 0 -9 -6 -25 -14 -36 -7 -11 -16 -32 -20 -47 -3 -16 -11 -28 -16 -28 -6 0 -10 -13 -10 -29 0 -16 -7 -34 -15 -41 -8 -7 -15 -25 -15 -40 0 -15 -7 -33 -15 -40 -8 -7 -15 -25 -15 -39 0 -15 -7 -36 -15 -47 -8 -10 -15 -32 -15 -49 0 -16 -7 -39 -15 -49 -8 -11 -15 -34 -15 -51 0 -17 -7 -40 -15 -51 -8 -10 -15 -39 -15 -64 0 -25 -7 -56 -15 -70 -8 -14 -14 -48 -15 -76 0 -28 -7 -68 -15 -87 -9 -21 -15 -67 -15 -109 0 -40 -7 -113 -15 -163 -17 -102 -19 -320 -5 -380 6 -22 13 -92 16 -155 3 -63 12 -132 20 -153 8 -20 14 -61 14 -90 1 -28 7 -63 15 -77 8 -14 15 -45 15 -70 0 -25 7 -54 15 -64 8 -11 15 -34 15 -51 0 -17 7 -40 15 -51 8 -10 15 -32 15 -49 0 -16 7 -39 15 -49 8 -11 15 -31 15 -45 0 -14 7 -35 15 -45 8 -11 15 -30 15 -42 0 -12 7 -27 15 -34 8 -7 15 -25 15 -40 0 -16 7 -30 15 -34 8 -3 15 -16 15 -29 0 -13 7 -32 15 -43 8 -10 15 -26 15 -35 0 -9 7 -22 15 -29 8 -7 15 -20 15 -30 0 -10 7 -23 15 -30 8 -7 15 -21 15 -32 0 -10 7 -21 15 -24 8 -4 15 -14 15 -24 0 -10 7 -23 15 -30 8 -7 15 -18 15 -25 0 -7 7 -18 15 -25 8 -7 15 -21 15 -32 0 -10 6 -21 14 -24 8 -3 17 -13 20 -22 7 -21 22 -45 58 -93 16 -20 28 -41 28 -47 0 -5 7 -12 15 -16 8 -3 15 -12 15 -20 0 -7 7 -16 15 -20 8 -3 15 -11 15 -19 0 -7 13 -26 28 -43 15 -16 43 -49 62 -74 18 -25 46 -57 62 -72 15 -15 28 -29 28 -32 0 -11 228 -232 295 -286 37 -30 84 -70 104 -87 20 -18 41 -33 46 -33 6 0 18 -8 27 -17 26 -28 73 -60 101 -69 9 -4 17 -10 17 -15 0 -8 31 -27 78 -48 12 -6 22 -15 22 -21 0 -5 9 -10 19 -10 11 0 23 -5 26 -11 4 -5 17 -15 28 -20 12 -5 36 -18 52 -29 17 -11 37 -22 45 -26 8 -3 22 -10 30 -15 8 -5 22 -12 30 -15 8 -3 22 -10 30 -15 8 -5 22 -12 30 -15 8 -3 28 -12 43 -20 16 -7 34 -14 42 -14 7 0 18 -7 25 -15 7 -8 25 -15 40 -15 15 0 33 -7 40 -15 7 -8 22 -15 34 -15 12 0 31 -7 42 -15 10 -8 31 -15 45 -15 14 0 34 -7 45 -15 10 -8 33 -15 50 -15 17 0 37 -7 44 -15 7 -9 29 -15 54 -15 23 0 51 -7 62 -15 10 -8 37 -15 59 -15 22 0 51 -7 65 -15 14 -8 52 -14 86 -15 37 0 68 -6 80 -15 13 -9 44 -14 94 -15 41 0 120 -7 174 -15 125 -19 293 -19 416 0 52 8 131 15 175 15 54 0 86 5 99 15 12 9 43 15 80 15 34 1 72 7 86 15 14 8 43 15 65 15 22 0 51 7 65 15 14 8 41 14 61 15 20 0 42 7 49 15 7 8 27 15 44 15 17 0 40 7 50 15 11 8 31 15 45 15 14 0 35 7 45 15 11 8 30 15 42 15 12 0 27 7 34 15 7 8 25 15 41 15 16 0 29 4 29 9 0 5 10 13 23 16 23 7 82 32 107 47 8 4 22 11 30 14 8 3 22 10 30 15 8 5 20 11 25 13 6 2 17 7 25 10 8 3 29 15 45 26 17 11 40 24 52 29 11 5 24 15 28 20 3 6 15 11 26 11 10 0 19 4 19 9 0 9 29 28 78 50 12 6 22 15 22 20 0 5 8 11 18 15 27 9 74 41 100 69 9 9 21 17 27 17 6 0 24 13 41 28 16 15 49 43 74 62 65 50 89 72 219 201 129 130 151 154 201 219 19 25 44 55 56 68 12 12 34 41 50 65 16 23 31 44 34 47 7 7 29 43 37 60 4 8 12 20 19 25 7 6 22 29 34 53 12 23 26 42 31 42 5 0 9 9 9 20 0 11 7 23 15 26 8 4 15 14 15 24 0 11 5 22 11 25 5 4 14 17 20 28 5 12 14 31 21 42 23 41 28 50 34 65 3 8 10 22 15 30 5 8 12 22 15 30 3 8 12 28 20 43 7 16 14 34 14 42 0 7 7 18 15 25 8 7 15 25 15 40 0 15 7 33 15 40 8 7 15 23 15 36 0 12 7 29 15 38 8 8 15 28 15 43 0 16 7 38 15 49 8 10 15 33 15 50 0 17 7 37 15 44 8 7 15 29 15 49 1 20 7 47 15 61 8 14 15 43 15 65 0 22 7 51 15 65 8 14 14 50 15 80 0 30 7 68 15 84 9 17 15 56 15 100 0 39 7 116 15 170 17 112 20 331 5 391 -6 22 -13 94 -17 160 -4 75 -11 127 -19 140 -8 11 -14 47 -14 85 -1 41 -6 72 -15 84 -8 11 -15 36 -15 57 0 20 -7 50 -15 65 -8 16 -15 45 -15 65 0 20 -7 42 -15 49 -8 7 -15 27 -15 44 0 17 -7 40 -15 50 -8 11 -15 33 -15 49 0 15 -7 35 -15 43 -8 9 -15 26 -15 38 0 13 -7 29 -15 36 -8 7 -15 25 -15 40 0 15 -7 33 -15 40 -8 7 -15 18 -15 25 0 12 -18 52 -42 95 -4 8 -11 22 -14 30 -3 8 -10 22 -15 30 -5 8 -12 22 -15 30 -3 8 -10 22 -15 30 -5 8 -13 25 -18 37 -6 11 -15 24 -20 28 -6 3 -11 14 -11 25 0 10 -7 20 -15 24 -8 3 -15 15 -15 26 0 11 -4 20 -9 20 -5 0 -19 19 -31 43 -12 23 -35 58 -51 78 -16 20 -29 40 -29 43 0 4 -5 12 -10 19 -38 45 -50 61 -50 67 0 3 -13 19 -28 36 -15 16 -43 49 -62 74 -50 65 -72 89 -201 219 -130 129 -154 151 -219 201 -25 19 -58 47 -74 62 -16 15 -38 30 -48 34 -10 3 -18 10 -18 15 0 5 -6 9 -14 9 -8 0 -16 7 -20 15 -3 8 -10 15 -17 15 -6 0 -28 12 -48 28 -41 31 -69 49 -91 59 -8 3 -19 12 -23 20 -4 7 -16 13 -26 13 -10 0 -24 7 -31 15 -7 8 -18 15 -25 15 -7 0 -18 7 -25 15 -7 8 -20 15 -30 15 -10 0 -20 7 -24 15 -3 8 -14 15 -24 15 -11 0 -25 7 -32 15 -7 8 -20 15 -30 15 -10 0 -23 7 -30 15 -7 8 -20 15 -29 15 -10 0 -26 7 -37 15 -10 8 -29 15 -42 15 -12 0 -25 7 -28 15 -4 8 -17 15 -29 15 -13 0 -30 7 -39 15 -8 8 -25 15 -38 15 -13 0 -33 7 -44 15 -10 8 -31 15 -45 15 -14 0 -34 7 -45 15 -10 8 -33 15 -50 15 -17 0 -37 7 -44 15 -7 8 -29 15 -49 15 -21 0 -46 7 -57 15 -10 8 -37 15 -59 15 -22 0 -53 7 -69 15 -15 8 -54 15 -85 15 -31 1 -67 7 -81 15 -16 9 -55 14 -110 15 -47 0 -125 7 -175 15 -109 18 -303 18 -405 0z m695 -1399 c280 -8 417 -16 432 -24 12 -7 41 -12 65 -12 24 0 52 -7 62 -15 11 -8 29 -15 41 -15 12 0 30 -7 41 -15 10 -8 29 -15 41 -15 12 0 24 -4 28 -9 3 -6 30 -21 60 -36 30 -14 55 -30 55 -35 0 -6 7 -10 16 -10 20 0 224 -203 224 -223 0 -8 7 -17 15 -21 8 -3 15 -15 15 -26 0 -11 7 -23 15 -26 8 -4 15 -14 15 -23 0 -9 7 -25 15 -35 8 -11 15 -30 15 -42 0 -12 7 -27 15 -34 8 -7 15 -27 15 -44 0 -17 7 -40 15 -50 8 -11 15 -41 15 -67 0 -25 7 -63 15 -82 22 -53 22 -1671 0 -1732 -8 -22 -15 -61 -15 -86 0 -25 -7 -54 -15 -65 -8 -10 -15 -33 -15 -50 0 -17 -7 -37 -15 -44 -8 -7 -15 -19 -15 -28 0 -19 -38 -100 -51 -108 -5 -3 -9 -11 -9 -19 0 -8 -13 -29 -30 -47 -16 -18 -30 -37 -30 -42 0 -13 -142 -156 -155 -156 -6 0 -25 -13 -43 -30 -18 -16 -39 -30 -47 -30 -8 0 -16 -4 -19 -9 -9 -14 -85 -51 -105 -51 -10 0 -24 -7 -31 -15 -7 -8 -27 -15 -44 -15 -17 0 -40 -7 -50 -15 -11 -8 -41 -15 -66 -15 -26 0 -62 -8 -81 -17 -30 -15 -106 -17 -874 -16 -764 0 -843 1 -872 16 -18 10 -54 17 -81 17 -27 0 -57 6 -68 15 -10 8 -33 15 -50 15 -17 0 -37 7 -44 15 -7 8 -20 15 -30 15 -9 0 -37 11 -61 25 -24 14 -51 28 -59 32 -8 3 -35 22 -60 41 -118 89 -225 211 -269 309 -5 11 -15 24 -20 28 -6 3 -11 16 -11 28 0 12 -7 31 -15 41 -8 11 -15 32 -15 47 0 14 -7 32 -15 39 -9 8 -15 30 -15 57 0 24 -6 54 -12 66 -12 22 -14 54 -37 641 -10 259 -8 357 18 996 4 107 11 184 19 197 6 12 12 42 12 67 0 26 6 51 15 60 8 8 15 28 15 44 0 16 7 35 15 42 8 7 15 23 15 35 0 12 7 28 15 35 8 7 15 21 15 32 0 10 7 21 15 24 8 4 15 14 15 24 0 10 7 20 15 24 8 3 15 12 15 20 0 18 184 204 214 217 26 11 56 30 74 47 7 6 19 12 26 12 8 0 19 7 26 15 7 8 22 15 34 15 11 0 30 7 40 15 11 8 32 15 47 15 14 0 32 7 39 15 8 10 30 15 62 15 27 0 59 6 71 12 15 9 136 16 387 24 490 14 523 15 995 0z"/>
<path d="M2840 4559 c-74 -4 -218 -10 -320 -14 -123 -4 -196 -12 -217 -21 -17 -8 -44 -14 -61 -14 -17 0 -32 -6 -36 -15 -3 -8 -16 -15 -30 -15 -28 0 -137 -71 -187 -123 -37 -38 -54 -61 -68 -94 -6 -11 -15 -24 -20 -28 -6 -3 -11 -19 -11 -35 0 -15 -7 -30 -15 -34 -9 -3 -15 -19 -15 -38 -1 -18 -7 -44 -15 -58 -9 -17 -15 -57 -15 -120 0 -52 -5 -138 -11 -190 -13 -115 -19 -1003 -8 -1086 5 -32 11 -131 15 -219 4 -103 12 -170 20 -187 8 -15 14 -40 14 -56 0 -17 6 -32 15 -36 8 -3 15 -16 15 -30 0 -44 123 -204 174 -227 33 -15 67 -36 79 -48 6 -6 21 -11 33 -11 12 0 27 -7 34 -15 7 -8 29 -15 49 -15 20 0 50 -8 66 -17 27 -16 100 -17 870 -17 781 -1 842 0 872 17 18 9 47 17 66 17 19 0 40 7 47 15 7 8 25 15 41 15 16 0 29 4 29 9 0 5 14 14 31 20 69 24 229 215 229 273 0 9 7 21 15 28 8 7 15 28 15 47 0 18 8 50 17 71 15 34 17 112 17 862 0 750 -2 828 -17 862 -9 21 -17 53 -17 71 0 19 -7 40 -15 47 -8 7 -15 25 -15 41 0 16 -4 29 -9 29 -5 0 -13 10 -17 23 -7 23 -54 87 -89 122 -32 33 -102 85 -113 85 -5 0 -15 7 -22 15 -7 8 -25 15 -40 15 -16 0 -30 7 -34 15 -3 9 -19 15 -38 15 -18 1 -44 7 -58 15 -18 10 -59 14 -141 15 -64 0 -163 5 -218 10 -118 12 -693 18 -891 9z m1316 -254 c10 -8 27 -15 38 -15 23 0 96 -57 96 -75 0 -7 6 -15 14 -18 36 -14 36 -210 0 -224 -8 -3 -14 -11 -14 -19 0 -8 -4 -14 -8 -14 -5 0 -21 -13 -38 -29 -16 -15 -45 -31 -64 -35 -83 -16 -98 -17 -104 -7 -4 6 -20 11 -35 11 -20 0 -43 14 -80 49 -28 27 -51 55 -51 64 0 8 -7 28 -15 43 -8 16 -15 38 -15 49 0 11 7 33 15 49 8 15 15 36 15 45 0 23 78 100 109 108 13 3 36 12 50 19 34 18 63 18 87 -1z m-844 -246 c9 -5 38 -9 65 -9 26 0 57 -7 67 -15 11 -8 31 -15 45 -15 14 0 35 -7 45 -15 11 -8 28 -15 38 -15 10 0 21 -7 24 -15 4 -8 16 -15 29 -15 13 0 25 -7 29 -15 3 -8 10 -15 17 -15 18 0 128 -89 173 -139 11 -13 28 -31 37 -40 29 -30 79 -99 79 -109 0 -5 7 -15 15 -22 8 -7 15 -20 15 -30 0 -10 7 -23 15 -30 8 -7 15 -23 15 -35 0 -12 7 -28 15 -35 8 -7 15 -27 15 -45 0 -18 6 -38 14 -44 13 -11 29 -135 29 -231 0 -83 -18 -219 -31 -232 -6 -6 -12 -26 -12 -44 0 -17 -7 -37 -15 -44 -8 -7 -15 -23 -15 -35 0 -12 -7 -28 -15 -35 -8 -7 -15 -19 -15 -27 0 -8 -14 -32 -30 -53 -17 -21 -30 -43 -30 -48 0 -14 -198 -212 -212 -212 -5 0 -27 -13 -48 -30 -21 -16 -45 -30 -53 -30 -8 0 -20 -7 -27 -15 -7 -8 -21 -15 -32 -15 -11 0 -26 -7 -34 -15 -9 -8 -28 -15 -42 -15 -15 0 -36 -6 -47 -14 -55 -38 -439 -36 -477 2 -7 7 -26 12 -44 12 -17 0 -37 7 -44 15 -7 8 -23 15 -37 15 -13 0 -26 7 -29 15 -4 8 -16 15 -29 15 -13 0 -25 7 -29 15 -3 8 -10 15 -17 15 -11 0 -68 42 -123 90 -25 22 -43 40 -118 121 -10 11 -18 24 -18 29 0 6 -4 10 -10 10 -5 0 -12 11 -16 24 -3 14 -12 27 -20 30 -8 3 -14 14 -14 25 0 11 -4 23 -10 26 -12 8 -50 93 -50 114 0 9 -6 25 -14 36 -8 11 -16 43 -19 70 -2 28 -10 68 -16 90 -14 51 -14 138 0 190 6 22 14 66 18 97 4 32 12 63 19 70 7 7 12 23 12 37 1 15 12 44 25 66 14 22 27 45 29 50 23 56 37 79 82 134 80 95 208 211 235 211 9 0 19 7 23 15 3 8 14 15 25 15 11 0 23 4 26 10 9 14 94 50 120 50 12 0 28 6 34 14 7 8 38 17 69 20 31 2 80 9 107 14 54 10 159 5 187 -9z"/>
<path d="M3100 3715 c-14 -8 -41 -14 -61 -15 -20 0 -42 -7 -49 -15 -7 -8 -20 -15 -30 -15 -10 0 -23 -7 -30 -15 -7 -8 -19 -15 -27 -15 -9 0 -51 -35 -94 -79 -44 -43 -79 -85 -79 -94 0 -8 -7 -20 -15 -27 -8 -7 -15 -20 -15 -30 0 -10 -7 -23 -15 -30 -8 -7 -15 -27 -15 -44 -1 -17 -7 -42 -15 -56 -9 -16 -14 -55 -14 -110 0 -55 5 -94 14 -110 8 -14 14 -39 15 -56 0 -17 7 -37 15 -44 8 -7 15 -20 15 -30 0 -10 7 -23 15 -30 8 -7 15 -19 15 -27 0 -19 154 -173 173 -173 8 0 20 -7 27 -15 7 -8 23 -15 35 -15 12 0 28 -7 35 -15 7 -8 24 -15 39 -15 14 0 56 -8 93 -17 59 -15 73 -16 115 -4 27 8 64 16 83 18 19 2 49 11 65 18 17 8 37 16 45 19 8 4 29 15 45 26 17 11 36 23 43 26 17 8 102 94 120 120 6 11 16 29 21 41 6 11 15 24 20 28 6 3 11 17 11 29 0 13 6 29 14 35 38 32 39 301 1 386 -8 17 -16 37 -19 45 -4 8 -15 29 -26 45 -11 17 -23 37 -27 45 -10 22 -124 131 -148 141 -11 5 -27 13 -35 17 -52 29 -85 42 -106 42 -14 0 -41 7 -61 15 -45 19 -160 19 -193 0z"/>
</g>
</svg>