<svg version="1.1" xmlns="http://www.w3.org/2000/svg" viewBox="0,0,50,50">
  <circle cx="25" cy="25" r="25" stroke="none" fill="#2aa9df"/>
  <path transform="translate(11,14) scale(1.1,1.1)" style="stroke:none;fill:white" d="M 25.2,2.49 C 24.27,2.9 23.28,3.19 22.23,3.32 C 23.3,2.67 24.12,1.63 24.5,0.39 C 23.5,1 22.4,1.44 21.22,1.67 C 20.28,0.64 18.93,0 17.45,0 C 14.59,0 12.28,2.37 12.28,5.3 C 12.28,5.72 12.32,6.12 12.41,6.51 C 8.11,6.29 4.3,4.18 1.75,0.97 C 1.31,1.75 1.05,2.67 1.05,3.64 C 1.05,5.47 1.97,7.1 3.35,8.05 C 2.51,8.02 1.71,7.78 1.01,7.39 L 1.01,7.45 C 1.01,10.02 2.79,12.16 5.16,12.65 C 4.73,12.77 4.27,12.84 3.8,12.84 C 3.47,12.84 3.14,12.8 2.83,12.74 C 3.48,14.85 5.39,16.38 7.65,16.42 C 5.89,17.85 3.65,18.69 1.23,18.69 C 0.82,18.69 0.4,18.67 0,18.62 C 2.29,20.12 5,21 7.93,21 C 17.44,21 22.64,12.92 22.64,5.92 C 22.64,5.67 22.6,5.46 22.62,5.23 C 23.63,4.48 24.51,3.55 25.2,2.49"/>
</svg>