<svg version="1.0" xmlns="http://www.w3.org/2000/svg" width="639.000000pt" height="639.000000pt" viewBox="0 0 639.000000 639.000000" preserveAspectRatio="xMidYMid meet">
<metadata>
Created by potrace 1.10, written by Peter Selinger 2001-2011
</metadata>
<g transform="translate(0.000000,639.000000) scale(0.100000,-0.100000)" fill="#ec3437" stroke="none">
<path d="M2965 6294 c-44 -7 -114 -13 -156 -13 -44 -1 -92 -7 -112 -16 -20 -8 -56 -15 -80 -15 -25 0 -61 -7 -80 -15 -20 -8 -53 -15 -74 -15 -21 0 -47 -7 -57 -15 -11 -8 -34 -15 -50 -15 -17 -1 -42 -7 -56 -15 -14 -8 -36 -15 -50 -15 -14 0 -34 -7 -44 -15 -11 -8 -31 -15 -45 -15 -14 0 -35 -7 -45 -15 -11 -8 -29 -15 -40 -15 -12 0 -30 -7 -40 -15 -11 -8 -30 -15 -43 -15 -13 0 -23 -4 -23 -9 0 -5 -10 -13 -22 -16 -24 -7 -83 -32 -108 -47 -8 -4 -22 -11 -30 -14 -8 -3 -22 -10 -30 -15 -8 -5 -21 -11 -27 -14 -33 -13 -40 -16 -68 -35 -16 -11 -40 -24 -52 -29 -11 -5 -24 -15 -28 -20 -3 -6 -15 -11 -25 -11 -10 0 -20 -3 -22 -7 -4 -10 -65 -53 -74 -53 -3 0 -23 -13 -44 -30 -21 -16 -41 -30 -44 -30 -4 0 -12 -5 -19 -10 -44 -37 -61 -50 -66 -50 -3 0 -17 -10 -31 -23 -14 -13 -47 -41 -75 -63 -27 -21 -63 -50 -79 -64 -52 -44 -260 -254 -301 -305 -22 -26 -57 -68 -78 -93 -21 -25 -46 -57 -55 -71 -9 -14 -21 -31 -27 -38 -16 -19 -29 -38 -40 -55 -5 -9 -34 -51 -62 -93 -29 -42 -53 -83 -53 -90 0 -8 -5 -17 -11 -20 -5 -4 -15 -17 -20 -28 -5 -12 -18 -35 -29 -52 -11 -16 -22 -37 -26 -45 -3 -8 -10 -22 -15 -30 -5 -8 -12 -22 -15 -30 -3 -8 -10 -22 -15 -30 -5 -8 -12 -22 -15 -30 -3 -8 -12 -31 -21 -50 -8 -19 -22 -51 -30 -70 -8 -19 -21 -48 -29 -63 -8 -16 -14 -36 -14 -46 0 -9 -7 -26 -15 -37 -8 -10 -15 -31 -15 -45 0 -14 -7 -34 -15 -45 -8 -10 -15 -30 -15 -44 0 -14 -7 -36 -15 -50 -8 -14 -14 -39 -15 -56 0 -16 -7 -39 -15 -50 -8 -10 -15 -36 -15 -57 0 -21 -7 -54 -15 -74 -8 -19 -15 -55 -15 -78 0 -23 -7 -62 -15 -85 -8 -23 -15 -72 -15 -109 0 -36 -7 -111 -15 -165 -19 -127 -19 -295 0 -422 8 -54 15 -129 15 -165 0 -37 7 -86 15 -109 8 -23 15 -64 15 -90 0 -26 7 -61 15 -76 8 -16 15 -47 15 -69 0 -22 7 -49 15 -59 8 -11 15 -34 15 -50 1 -17 7 -42 15 -56 8 -14 15 -36 15 -50 0 -14 7 -34 15 -44 8 -11 15 -31 15 -45 0 -14 7 -35 15 -45 8 -11 15 -29 15 -40 0 -12 7 -30 15 -40 8 -11 15 -30 15 -42 0 -12 7 -27 15 -34 8 -7 15 -19 15 -27 0 -13 15 -48 41 -93 5 -8 12 -22 15 -30 3 -8 10 -22 15 -30 5 -8 11 -19 13 -25 2 -5 7 -17 10 -25 3 -8 15 -28 26 -45 11 -16 24 -40 29 -52 5 -11 15 -24 20 -28 6 -3 11 -12 11 -20 0 -7 24 -48 53 -90 28 -42 57 -84 62 -93 6 -9 15 -22 20 -29 25 -32 31 -40 47 -64 9 -14 34 -46 55 -71 21 -25 56 -67 78 -94 40 -50 247 -258 301 -304 16 -14 52 -43 79 -64 28 -22 59 -48 69 -58 11 -10 38 -30 60 -45 23 -16 43 -31 44 -35 2 -5 8 -8 14 -8 6 0 27 -13 48 -30 21 -16 41 -30 44 -30 9 0 70 -43 74 -52 2 -5 10 -8 17 -8 8 0 31 -12 52 -26 21 -14 47 -30 58 -35 11 -5 28 -13 37 -19 10 -5 26 -15 35 -20 10 -6 25 -13 33 -16 8 -3 22 -10 30 -15 8 -5 22 -12 30 -15 8 -3 28 -12 43 -20 16 -7 34 -14 42 -14 7 0 18 -7 25 -15 7 -8 22 -15 34 -15 12 0 31 -7 42 -15 10 -8 28 -15 40 -15 11 0 29 -7 40 -15 10 -8 31 -15 45 -15 14 0 34 -7 45 -15 10 -8 31 -15 45 -15 14 0 34 -7 45 -15 10 -8 35 -15 55 -15 19 0 44 -7 55 -15 10 -8 36 -15 57 -15 21 0 54 -7 74 -15 19 -8 55 -15 80 -15 24 0 60 -7 80 -15 20 -8 66 -15 107 -15 39 0 116 -7 171 -15 128 -18 292 -18 420 0 55 8 130 15 166 15 37 0 86 7 109 15 23 8 62 15 85 15 23 0 59 7 78 15 20 8 53 15 74 15 21 0 47 7 57 15 11 8 36 15 55 15 20 0 45 7 55 15 11 8 31 15 45 15 14 0 35 7 45 15 11 8 31 15 45 15 14 0 35 7 45 15 11 8 29 15 40 15 12 0 30 7 40 15 11 8 30 15 42 15 12 0 27 7 34 15 7 8 18 15 25 15 12 0 52 18 95 42 8 4 22 11 30 14 8 3 22 10 30 15 8 5 22 12 30 15 31 12 36 15 65 34 17 11 40 24 52 29 11 5 24 15 28 20 3 6 15 11 25 11 10 0 20 3 22 8 4 9 65 52 74 52 3 0 23 14 44 30 21 17 42 30 48 30 6 0 12 3 14 8 2 4 21 19 44 35 22 15 49 35 60 45 10 10 42 36 69 58 85 67 105 85 224 204 118 118 135 137 205 225 22 28 48 59 58 69 10 11 30 38 45 60 15 23 30 43 33 46 3 3 10 13 15 22 6 9 34 51 63 93 28 42 52 83 52 90 0 8 5 17 11 20 5 4 15 17 20 28 5 12 18 36 29 52 11 17 22 37 26 45 3 8 10 22 15 30 5 8 12 22 15 30 3 8 10 22 15 30 5 8 12 22 15 30 3 8 12 27 20 42 8 14 14 33 14 41 0 8 7 20 15 27 8 7 15 22 15 34 0 12 7 31 15 42 8 10 15 28 15 40 0 11 7 29 15 40 8 10 15 31 15 45 0 14 7 34 15 45 8 10 15 31 15 45 0 14 7 34 15 45 8 10 15 35 15 55 0 19 7 44 15 55 8 10 15 37 15 59 0 22 7 53 15 69 8 15 15 50 15 76 0 26 7 67 15 90 8 23 15 70 15 104 0 33 7 115 15 181 19 151 19 249 0 400 -8 66 -15 148 -15 181 0 34 -7 81 -15 104 -8 23 -15 62 -15 85 0 23 -7 59 -15 78 -8 20 -15 53 -15 74 0 21 -7 47 -15 57 -8 11 -15 36 -15 55 0 20 -7 45 -15 55 -8 11 -15 31 -15 45 0 14 -7 35 -15 45 -8 11 -15 31 -15 45 0 14 -7 35 -15 45 -8 11 -15 29 -15 40 0 12 -7 30 -15 40 -8 11 -15 30 -15 43 0 13 -4 23 -9 23 -5 0 -13 10 -16 23 -7 23 -32 82 -47 107 -4 8 -11 22 -14 30 -3 8 -10 22 -15 30 -5 8 -11 21 -14 28 -13 32 -16 39 -35 67 -11 17 -24 40 -29 52 -5 11 -15 24 -20 28 -6 3 -11 12 -11 20 0 7 -24 48 -52 90 -29 42 -57 84 -63 93 -13 22 -97 136 -105 142 -4 3 -24 28 -46 55 -66 84 -85 105 -205 224 -121 122 -143 141 -224 205 -27 22 -61 50 -75 63 -14 13 -28 23 -31 23 -5 0 -22 13 -66 50 -7 5 -15 10 -19 10 -3 0 -23 14 -44 30 -21 17 -41 30 -44 30 -9 0 -70 43 -74 53 -2 4 -12 7 -22 7 -10 0 -22 5 -25 11 -4 5 -17 15 -28 20 -12 5 -35 18 -52 29 -16 11 -37 22 -45 26 -8 3 -22 10 -30 15 -8 5 -22 12 -30 15 -8 3 -22 10 -30 15 -8 5 -22 12 -30 15 -8 3 -28 11 -45 19 -16 7 -40 16 -52 20 -13 3 -23 11 -23 16 0 5 -10 9 -23 9 -13 0 -32 7 -43 15 -10 8 -28 15 -40 15 -11 0 -29 7 -40 15 -10 8 -31 15 -45 15 -14 0 -34 7 -45 15 -10 8 -30 15 -44 15 -14 0 -36 7 -50 15 -14 8 -39 14 -56 15 -16 0 -39 7 -50 15 -10 8 -36 15 -57 15 -21 0 -54 7 -74 15 -19 8 -55 15 -78 15 -23 0 -62 7 -85 15 -23 8 -72 15 -109 15 -36 0 -111 7 -166 15 -120 17 -320 17 -430 -1z m925 -1655 c47 -5 173 -13 281 -17 108 -5 202 -13 210 -17 7 -5 84 -11 171 -15 102 -4 162 -10 170 -18 7 -7 26 -12 44 -12 28 0 61 -12 114 -42 8 -4 27 -13 43 -19 15 -6 27 -15 27 -20 0 -5 6 -9 13 -9 36 0 172 -150 211 -235 11 -22 25 -52 33 -67 7 -14 13 -40 13 -58 0 -17 5 -40 10 -51 6 -10 15 -88 20 -172 5 -83 14 -174 19 -202 13 -65 13 -905 0 -970 -5 -27 -14 -118 -18 -202 -5 -83 -14 -160 -20 -171 -6 -12 -11 -35 -11 -52 0 -18 -6 -44 -13 -58 -8 -15 -22 -45 -33 -67 -39 -85 -175 -235 -211 -235 -7 0 -13 -4 -13 -9 0 -5 -12 -14 -27 -20 -16 -6 -35 -15 -43 -19 -53 -30 -86 -42 -114 -42 -18 0 -37 -5 -44 -12 -8 -8 -67 -14 -165 -18 -84 -4 -159 -10 -166 -14 -7 -5 -106 -12 -219 -17 -114 -5 -243 -14 -287 -19 -104 -11 -1306 -11 -1410 0 -44 5 -171 14 -282 19 -111 5 -207 13 -214 17 -7 4 -82 10 -166 14 -98 4 -157 10 -165 18 -7 7 -26 12 -44 12 -28 0 -61 12 -114 42 -8 4 -27 13 -43 19 -15 6 -27 15 -27 20 0 5 -6 9 -12 9 -37 0 -173 151 -212 235 -11 22 -24 49 -29 60 -6 11 -15 43 -19 70 -5 28 -13 73 -18 100 -5 28 -9 88 -9 135 -1 47 -8 121 -16 165 -11 62 -14 178 -14 510 0 237 5 453 10 480 5 28 14 119 19 202 5 84 14 162 20 172 5 11 10 34 10 51 0 18 6 44 13 58 8 15 22 45 33 67 39 85 175 235 212 235 6 0 12 4 12 9 0 5 12 14 28 20 15 6 34 15 42 19 53 30 86 42 114 42 18 0 37 5 44 12 8 8 68 14 170 18 87 4 164 10 171 14 7 5 103 12 214 17 111 5 234 13 272 18 97 11 1311 11 1415 0z"/>
<path d="M2787 3202 c2 -317 3 -581 3 -586 0 -5 7 -2 16 5 18 15 49 33 79 48 11 5 37 21 58 35 21 14 44 26 52 26 8 0 15 3 15 8 0 4 21 18 48 32 26 13 49 28 52 32 3 4 17 12 30 18 14 5 39 19 55 30 17 11 39 24 50 30 11 6 34 19 50 30 17 11 39 24 50 30 21 11 34 18 103 63 24 15 49 27 57 27 8 0 17 5 20 11 4 5 17 15 28 20 12 5 36 18 52 29 17 11 39 24 50 30 11 6 34 19 50 30 17 11 40 24 53 30 12 5 22 14 22 20 0 6 -10 15 -22 20 -13 6 -36 19 -53 30 -16 11 -41 25 -55 30 -13 6 -27 14 -30 18 -3 4 -26 19 -52 32 -27 14 -48 28 -48 32 0 5 -8 8 -18 8 -10 0 -23 5 -29 11 -11 11 -36 26 -78 49 -11 6 -33 19 -50 30 -16 11 -41 25 -55 30 -13 6 -27 14 -30 18 -3 4 -21 15 -40 26 -63 33 -104 57 -135 77 -16 10 -39 23 -50 29 -11 6 -33 19 -50 30 -16 11 -40 24 -53 30 -12 5 -47 26 -77 45 -31 19 -59 35 -63 35 -4 0 -6 -260 -5 -578z"/>
</g>
</svg>